<!--
  Swapit Windows/Linux app-icon source (-> .ico / linux png). GENERATED by
  scripts/make-icon-svg.js — edit that script, not this file.
  (macOS uses the Icon Composer source public/logos/icon_macos.icon instead.)

  Full-bleed "squircle" (continuous corners), edge to edge with no margin, so it
  fills the tile at native size: a black tile with a solid white "S" (< over >),
  vertically centred — matching the macOS Liquid Glass icon's colour scheme.
-->
<svg width="512" height="512" viewBox="0 0 512 512" fill="none" xmlns="http://www.w3.org/2000/svg">
  <path d="M 328.74496 0 c 64.14527774932377 0 96.21791662398564 0 120.71816949336915 12.4835023559998 a 114.5344 114.5344 0 0 1 50.05336815063105 50.05336815063105 c 12.4835023559998 24.500252869383505 12.4835023559998 56.57289174404539 12.4835023559998 120.71816949336915 L 512 328.74496 c 0 64.14527774932377 0 96.21791662398564 -12.4835023559998 120.71816949336915 a 114.5344 114.5344 0 0 1 -50.05336815063105 50.05336815063105 c -24.500252869383505 12.4835023559998 -56.57289174404539 12.4835023559998 -120.71816949336915 12.4835023559998 L 183.25504 512 c -64.14527774932377 0 -96.21791662398564 0 -120.71816949336915 -12.4835023559998 a 114.5344 114.5344 0 0 1 -50.05336815063105 -50.05336815063105 c -12.4835023559998 -24.500252869383505 -12.4835023559998 -56.57289174404539 -12.4835023559998 -120.71816949336915 L 0 183.25504 c 0 -64.14527774932377 0 -96.21791662398564 12.4835023559998 -120.71816949336915 a 114.5344 114.5344 0 0 1 50.05336815063105 -50.05336815063105 c 24.500252869383505 -12.4835023559998 56.57289174404539 -12.4835023559998 120.71816949336915 -12.4835023559998 Z" fill="black" />
  <text x="256" y="212.875" font-family="Arial, sans-serif" font-size="445"
    font-weight="900" fill="white" text-anchor="middle" dominant-baseline="middle">&lt;</text>
  <text x="256" y="382.875" font-family="Arial, sans-serif" font-size="445"
    font-weight="900" fill="white" text-anchor="middle" dominant-baseline="middle">&gt;</text>
</svg>
